<svg width="605" height="1365" viewBox="0 0 605 1365" fill="none" xmlns="http://www.w3.org/2000/svg">
<circle cx="304" cy="257" r="191.5" stroke="#333333" stroke-width="7"/>
<path d="M273.143 228.257L273 228.615V229V860V860.385L273.143 860.743L277.143 870.743L281 870V219L277.143 218.257L273.143 228.257Z" fill="#333333" stroke="white" stroke-width="4"/>
<path d="M326.857 218.257L323 219V870L326.857 870.743L330.857 860.743L331 860.385V860V229V228.615L330.857 228.257L326.857 218.257Z" fill="#333333" stroke="white" stroke-width="4"/>
<rect x="298" y="88" width="8" height="1024.99" fill="#333333" stroke="white" stroke-width="4"/>
<rect x="300.5" y="0.5" width="3" height="1019.99" fill="#333333" stroke="black"/>
<path d="M112.073 1261H107.609C106.553 1261 106.217 1260.42 106.601 1259.27L135.257 1170.14C135.545 1168.98 136.217 1168.41 137.273 1168.41H144.041C145.001 1168.41 145.673 1168.98 146.057 1170.14L174.713 1259.27C175.001 1260.42 174.665 1261 173.705 1261H169.097C168.137 1261 167.513 1260.42 167.225 1259.27L159.449 1236.23H121.721L113.945 1259.27C113.561 1260.42 112.937 1261 112.073 1261ZM140.297 1176.33L123.737 1229.75H157.577L140.873 1176.33H140.297ZM190.727 1240.55V1235.37C190.727 1234.31 191.255 1233.78 192.311 1233.78H196.487C197.543 1233.78 198.07 1234.31 198.07 1235.37V1240.12C198.07 1249.72 202.727 1254.52 212.039 1254.52H227.015C236.327 1254.52 240.983 1249.67 240.983 1239.98V1233.93C240.983 1229.7 239.255 1226.39 235.799 1223.99C232.343 1221.59 228.167 1219.86 223.271 1218.81C218.375 1217.75 213.431 1216.65 208.439 1215.5C203.543 1214.34 199.367 1212.23 195.911 1209.16C192.455 1206.09 190.727 1201.96 190.727 1196.78V1188.86C190.727 1182.52 192.551 1177.53 196.199 1173.88C199.847 1170.23 204.791 1168.41 211.031 1168.41H227.735C233.975 1168.41 238.919 1170.23 242.567 1173.88C246.215 1177.53 248.039 1182.52 248.039 1188.86V1192.89C248.039 1193.94 247.511 1194.47 246.455 1194.47H242.279C241.223 1194.47 240.695 1193.94 240.695 1192.89V1189.29C240.695 1179.69 236.039 1174.89 226.727 1174.89H211.895C202.679 1174.89 198.07 1179.78 198.07 1189.58V1196.78C198.07 1203.4 203.975 1207.86 215.783 1210.17C220.679 1211.13 225.575 1212.23 230.471 1213.48C235.463 1214.73 239.687 1216.98 243.143 1220.25C246.599 1223.51 248.327 1227.93 248.327 1233.5V1240.55C248.327 1246.89 246.503 1251.88 242.855 1255.53C239.207 1259.18 234.263 1261 228.023 1261H211.031C204.791 1261 199.847 1259.18 196.199 1255.53C192.551 1251.88 190.727 1246.89 190.727 1240.55ZM306.578 1261H290.882C284.642 1261 279.698 1259.18 276.05 1255.53C272.498 1251.88 270.722 1246.89 270.722 1240.55V1188.86C270.722 1182.52 272.498 1177.53 276.05 1173.88C279.698 1170.23 284.642 1168.41 290.882 1168.41H306.578C312.818 1168.41 317.762 1170.23 321.41 1173.88C325.058 1177.53 326.882 1182.52 326.882 1188.86V1195.34C326.882 1196.49 326.354 1197.06 325.298 1197.06H321.122C320.066 1197.06 319.538 1196.49 319.538 1195.34V1189.14C319.538 1184.54 318.386 1181.03 316.082 1178.63C313.778 1176.14 310.418 1174.89 306.002 1174.89H291.458C287.042 1174.89 283.682 1176.14 281.378 1178.63C279.074 1181.13 277.922 1184.63 277.922 1189.14V1240.26C277.922 1244.78 279.074 1248.28 281.378 1250.78C283.682 1253.27 287.042 1254.52 291.458 1254.52H306.002C310.418 1254.52 313.778 1253.32 316.082 1250.92C318.386 1248.42 319.538 1244.87 319.538 1240.26V1221.26C319.538 1220.39 319.106 1219.96 318.242 1219.96H301.682C300.626 1219.96 300.098 1219.43 300.098 1218.38V1215.06C300.098 1214.01 300.626 1213.48 301.682 1213.48H324.146C325.97 1213.48 326.882 1214.44 326.882 1216.36V1240.55C326.882 1246.89 325.058 1251.88 321.41 1255.53C317.762 1259.18 312.818 1261 306.578 1261ZM347.339 1261H342.875C341.819 1261 341.483 1260.42 341.867 1259.27L370.523 1170.14C370.811 1168.98 371.483 1168.41 372.539 1168.41H379.307C380.267 1168.41 380.939 1168.98 381.323 1170.14L409.979 1259.27C410.267 1260.42 409.931 1261 408.971 1261H404.363C403.403 1261 402.779 1260.42 402.491 1259.27L394.715 1236.23H356.987L349.211 1259.27C348.827 1260.42 348.203 1261 347.339 1261ZM375.563 1176.33L359.003 1229.75H392.843L376.139 1176.33H375.563ZM432.184 1261H428.008C427.048 1261 426.568 1260.42 426.568 1259.27V1170.14C426.568 1168.98 427.048 1168.41 428.008 1168.41H431.896C432.76 1168.41 433.336 1168.7 433.624 1169.27L477.832 1245.3H478.408V1170.14C478.408 1168.98 478.936 1168.41 479.992 1168.41H484.024C485.08 1168.41 485.608 1168.98 485.608 1170.14V1259.27C485.608 1260.42 485.08 1261 484.024 1261H480.712C479.848 1261 479.08 1260.47 478.408 1259.42L434.344 1183.96H433.768V1259.27C433.768 1260.42 433.24 1261 432.184 1261Z" fill="black"/>
<path d="M122.9 1351H120.319C119.666 1351 119.34 1350.64 119.34 1349.93V1298.58C119.34 1298.05 119.043 1297.78 118.45 1297.78H105.546C104.834 1297.78 104.478 1297.46 104.478 1296.8V1294.76C104.478 1294.1 104.834 1293.78 105.546 1293.78H137.583C138.295 1293.78 138.651 1294.1 138.651 1294.76V1296.8C138.651 1297.46 138.295 1297.78 137.583 1297.78H124.679C124.086 1297.78 123.789 1298.05 123.789 1298.58V1349.93C123.789 1350.64 123.493 1351 122.9 1351ZM177.089 1351H158.489C154.633 1351 151.578 1349.87 149.323 1347.62C147.128 1345.36 146.031 1342.28 146.031 1338.36V1318.25C146.031 1314.34 147.128 1311.25 149.323 1309C151.578 1306.74 154.633 1305.61 158.489 1305.61H166.143C169.999 1305.61 173.054 1306.74 175.309 1309C177.563 1311.25 178.691 1314.34 178.691 1318.25V1329.55C178.691 1330.26 178.335 1330.62 177.623 1330.62H151.281C150.747 1330.62 150.48 1330.89 150.48 1331.42V1338.27C150.48 1341.06 151.192 1343.23 152.616 1344.77C154.04 1346.25 156.116 1347 158.845 1347H177.089C177.741 1347 178.068 1347.32 178.068 1347.97V1350.02C178.068 1350.67 177.741 1351 177.089 1351ZM151.281 1327.06H173.44C173.974 1327.06 174.241 1326.79 174.241 1326.26V1318.34C174.241 1315.55 173.529 1313.42 172.105 1311.93C170.681 1310.39 168.605 1309.62 165.876 1309.62H158.845C156.116 1309.62 154.04 1310.39 152.616 1311.93C151.192 1313.42 150.48 1315.55 150.48 1318.34V1326.26C150.48 1326.79 150.747 1327.06 151.281 1327.06ZM216.084 1347.97V1350.02C216.084 1350.67 215.758 1351 215.105 1351H202.29C198.434 1351 195.378 1349.87 193.124 1347.62C190.929 1345.36 189.831 1342.28 189.831 1338.36V1318.25C189.831 1314.34 190.929 1311.25 193.124 1309C195.378 1306.74 198.434 1305.61 202.29 1305.61H215.105C215.758 1305.61 216.084 1305.94 216.084 1306.59V1308.73C216.084 1309.32 215.758 1309.62 215.105 1309.62H202.646C199.917 1309.62 197.841 1310.39 196.417 1311.93C194.993 1313.48 194.281 1315.64 194.281 1318.43V1338.19C194.281 1340.97 194.993 1343.14 196.417 1344.68C197.841 1346.22 199.917 1347 202.646 1347H215.105C215.758 1347 216.084 1347.32 216.084 1347.97ZM229.215 1351H226.634C226.041 1351 225.744 1350.64 225.744 1349.93V1289.51C225.744 1288.79 226.041 1288.44 226.634 1288.44H229.215C229.868 1288.44 230.194 1288.79 230.194 1289.51V1310.24H230.55C232.211 1307.16 235.296 1305.61 239.805 1305.61H245.679C249.476 1305.61 252.472 1306.74 254.667 1309C256.862 1311.25 257.96 1314.34 257.96 1318.25V1349.93C257.96 1350.64 257.663 1351 257.07 1351H254.489C253.836 1351 253.51 1350.64 253.51 1349.93V1318.43C253.51 1315.64 252.798 1313.48 251.374 1311.93C249.95 1310.39 247.874 1309.62 245.145 1309.62H239.36C236.512 1309.62 234.258 1310.39 232.597 1311.93C230.995 1313.42 230.194 1315.55 230.194 1318.34V1349.93C230.194 1350.64 229.868 1351 229.215 1351ZM274.319 1351H271.739C271.145 1351 270.849 1350.64 270.849 1349.93V1306.68C270.849 1305.97 271.145 1305.61 271.739 1305.61H274.319C274.972 1305.61 275.298 1305.97 275.298 1306.68V1310.24H275.654C277.315 1307.16 280.401 1305.61 284.909 1305.61H290.783C294.58 1305.61 297.576 1306.74 299.771 1309C301.966 1311.25 303.064 1314.34 303.064 1318.25V1349.93C303.064 1350.64 302.767 1351 302.174 1351H299.593C298.941 1351 298.614 1350.64 298.614 1349.93V1318.43C298.614 1315.64 297.902 1313.48 296.478 1311.93C295.055 1310.39 292.978 1309.62 290.249 1309.62H284.465C281.617 1309.62 279.362 1310.39 277.701 1311.93C276.099 1313.42 275.298 1315.55 275.298 1318.34V1349.93C275.298 1350.64 274.972 1351 274.319 1351ZM335.175 1351H327.522C323.666 1351 320.61 1349.87 318.356 1347.62C316.161 1345.36 315.063 1342.28 315.063 1338.36V1318.25C315.063 1314.34 316.161 1311.25 318.356 1309C320.61 1306.74 323.666 1305.61 327.522 1305.61H335.175C339.032 1305.61 342.087 1306.74 344.342 1309C346.596 1311.25 347.723 1314.34 347.723 1318.25V1338.36C347.723 1342.28 346.596 1345.36 344.342 1347.62C342.087 1349.87 339.032 1351 335.175 1351ZM327.878 1347H334.819C337.548 1347 339.625 1346.25 341.049 1344.77C342.532 1343.23 343.274 1341.06 343.274 1338.27V1318.34C343.274 1315.55 342.532 1313.42 341.049 1311.93C339.625 1310.39 337.548 1309.62 334.819 1309.62H327.878C325.149 1309.62 323.072 1310.39 321.649 1311.93C320.225 1313.42 319.513 1315.55 319.513 1318.34V1338.27C319.513 1341.06 320.225 1343.23 321.649 1344.77C323.072 1346.25 325.149 1347 327.878 1347ZM364.017 1351H361.436C360.843 1351 360.546 1350.64 360.546 1349.93V1289.51C360.546 1288.79 360.843 1288.44 361.436 1288.44H364.017C364.67 1288.44 364.996 1288.79 364.996 1289.51V1349.93C364.996 1350.64 364.67 1351 364.017 1351ZM398.009 1351H390.355C386.499 1351 383.444 1349.87 381.189 1347.62C378.994 1345.36 377.896 1342.28 377.896 1338.36V1318.25C377.896 1314.34 378.994 1311.25 381.189 1309C383.444 1306.74 386.499 1305.61 390.355 1305.61H398.009C401.865 1305.61 404.92 1306.74 407.175 1309C409.429 1311.25 410.556 1314.34 410.556 1318.25V1338.36C410.556 1342.28 409.429 1345.36 407.175 1347.62C404.92 1349.87 401.865 1351 398.009 1351ZM390.711 1347H397.653C400.382 1347 402.458 1346.25 403.882 1344.77C405.365 1343.23 406.107 1341.06 406.107 1338.27V1318.34C406.107 1315.55 405.365 1313.42 403.882 1311.93C402.458 1310.39 400.382 1309.62 397.653 1309.62H390.711C387.982 1309.62 385.906 1310.39 384.482 1311.93C383.058 1313.42 382.346 1315.55 382.346 1318.34V1338.27C382.346 1341.06 383.058 1343.23 384.482 1344.77C385.906 1346.25 387.982 1347 390.711 1347ZM440.555 1348.42H434.771C430.974 1348.42 427.948 1347.29 425.693 1345.04C423.498 1342.78 422.401 1339.73 422.401 1335.87V1318.25C422.401 1314.34 423.498 1311.25 425.693 1309C427.948 1306.74 431.003 1305.61 434.86 1305.61H453.726C454.378 1305.61 454.705 1305.97 454.705 1306.68V1350.82C454.705 1354.74 453.578 1357.82 451.323 1360.08C449.069 1362.33 446.013 1363.46 442.157 1363.46H425.96C425.308 1363.46 424.981 1363.13 424.981 1362.48V1360.34C424.981 1359.75 425.308 1359.45 425.96 1359.45H441.801C444.53 1359.45 446.607 1358.68 448.03 1357.14C449.454 1355.66 450.166 1353.49 450.166 1350.64V1343.79H449.81C448.327 1346.88 445.242 1348.42 440.555 1348.42ZM450.166 1335.69V1310.42C450.166 1309.89 449.899 1309.62 449.365 1309.62H435.305C432.575 1309.62 430.469 1310.39 428.986 1311.93C427.562 1313.42 426.85 1315.58 426.85 1318.43V1335.69C426.85 1338.48 427.562 1340.65 428.986 1342.19C430.469 1343.67 432.575 1344.41 435.305 1344.41H441C443.848 1344.41 446.073 1343.67 447.674 1342.19C449.336 1340.65 450.166 1338.48 450.166 1335.69ZM470.088 1364.53H466.795C466.143 1364.53 465.816 1364.2 465.816 1363.55V1361.41C465.816 1360.76 466.143 1360.43 466.795 1360.43H469.198C470.978 1360.43 472.491 1360.17 473.737 1359.63C474.982 1359.16 476.08 1358.24 477.029 1356.87C477.979 1355.51 478.601 1354.44 478.898 1353.67C479.729 1351.83 480.411 1350.14 480.945 1348.6H479.254C478.601 1348.6 478.186 1348.24 478.008 1347.53L463.858 1306.68C463.621 1305.97 463.858 1305.61 464.57 1305.61H467.329C467.922 1305.61 468.308 1305.97 468.486 1306.68L481.568 1344.86H481.924L495.006 1306.68C495.184 1305.97 495.569 1305.61 496.163 1305.61H498.832C499.544 1305.61 499.811 1305.97 499.633 1306.68C489.014 1337.77 483.466 1353.85 482.992 1354.92C482.576 1355.98 481.776 1357.44 480.589 1359.28C478.335 1362.78 474.834 1364.53 470.088 1364.53Z" fill="black"/>
</svg>
